# xmcd
#
# Track frame offsets:
#	182
#	16897
#	30207
#	58332
#	76730
#	90167
#	121660
#	153990
#	167097
#	182300
#	193660
#	214425
#	229330
#	244525
#
# Disc length: 3451
#
# Revision: 1
# Processed by: cddbd v1.5.1PL0 Copyright (c) Steve Scherf et al.
# Submitted via: CDex 1.51
# Normalized: r0:TDELIM( - )
#
DISCID=9f0d790e
DTITLE=Sony Collection - Jazz
DYEAR=1992
DGENRE=Jazz
TTITLE0=Ray Charles and Lou Rawls and Milt Jackson - Save the bones for H. Jones
TTITLE1=Count Basie - Beaver junction
TTITLE2=Thelonious Monk - Blue Monk
TTITLE3=Ray Briant - Misty
TTITLE4=Dave Brubeck - Take five
TTITLE5=Miles Davis - All of you
TTITLE6=Mahalia Jackson - In the upper room
TTITLE7=Aretha Franklin - It ain't necessarely so
TTITLE8=Gene Krupa - How high the moon
TTITLE9=Sarah Vaughan - Perdido
TTITLE10=Stan Getz - Izaura
TTITLE11=Cab Calloway - Minnie the moocher
TTITLE12=Duke Ellington - Singing in the rain
TTITLE13=Louis Armstrong - Cabaret
EXTD=YEAR: 1992
EXTT0=
EXTT1=
EXTT2=
EXTT3=
EXTT4=
EXTT5=
EXTT6=
EXTT7=
EXTT8=
EXTT9=
EXTT10=
EXTT11=
EXTT12=
EXTT13=
PLAYORDER=
